<svg xmlns="http://www.w3.org/2000/svg" xmlns:xlink="http://www.w3.org/1999/xlink" width="200" height="200" viewBox="0 0 200 200">
  <defs>
    <linearGradient id="grad1" x1="0%" y1="0%" x2="100%" y2="100%">
      <stop offset="0%" style="stop-color:#f1c40f;stop-opacity:1" />
      <stop offset="100%" style="stop-color:#e67e22;stop-opacity:1" />
    </linearGradient>
    
    <linearGradient id="grad2" x1="0%" y1="0%" x2="100%" y2="100%">
      <stop offset="0%" style="stop-color:#ffffff;stop-opacity:0.7" />
      <stop offset="100%" style="stop-color:#ffffff;stop-opacity:0.3" />
    </linearGradient>
    
    <filter id="shadow" x="-20%" y="-20%" width="140%" height="140%">
      <feGaussianBlur in="SourceAlpha" stdDeviation="3" />
      <feOffset dx="2" dy="2" result="offsetblur" />
      <feComponentTransfer>
        <feFuncA type="linear" slope="0.5" />
      </feComponentTransfer>
      <feMerge>
        <feMergeNode />
        <feMergeNode in="SourceGraphic" />
      </feMerge>
    </filter>
    
    <clipPath id="roundedRect">
      <rect x="0" y="0" width="200" height="200" rx="25" ry="25" />
    </clipPath>
  </defs>
  
  <!-- Background -->
  <g clip-path="url(#roundedRect)">
    <rect width="200" height="200" rx="25" ry="25" fill="url(#grad1)" />
    
    <!-- Decorative Elements - Grid Pattern -->
    <g opacity="0.15">
      <circle cx="20" cy="20" r="4" fill="white" />
      <circle cx="50" cy="20" r="4" fill="white" />
      <circle cx="80" cy="20" r="4" fill="white" />
      <circle cx="110" cy="20" r="4" fill="white" />
      <circle cx="140" cy="20" r="4" fill="white" />
      <circle cx="170" cy="20" r="4" fill="white" />
      
      <circle cx="35" cy="40" r="4" fill="white" />
      <circle cx="65" cy="40" r="4" fill="white" />
      <circle cx="95" cy="40" r="4" fill="white" />
      <circle cx="125" cy="40" r="4" fill="white" />
      <circle cx="155" cy="40" r="4" fill="white" />
      
      <circle cx="20" cy="60" r="4" fill="white" />
      <circle cx="50" cy="60" r="4" fill="white" />
      <circle cx="80" cy="60" r="4" fill="white" />
      <circle cx="110" cy="60" r="4" fill="white" />
      <circle cx="140" cy="60" r="4" fill="white" />
      <circle cx="170" cy="60" r="4" fill="white" />
      
      <!-- Connection Lines -->
      <line x1="20" y1="20" x2="35" y2="40" stroke="white" stroke-width="1" />
      <line x1="50" y1="20" x2="35" y2="40" stroke="white" stroke-width="1" />
      <line x1="50" y1="20" x2="65" y2="40" stroke="white" stroke-width="1" />
      <line x1="80" y1="20" x2="65" y2="40" stroke="white" stroke-width="1" />
      <line x1="80" y1="20" x2="95" y2="40" stroke="white" stroke-width="1" />
      <line x1="110" y1="20" x2="95" y2="40" stroke="white" stroke-width="1" />
      <line x1="110" y1="20" x2="125" y2="40" stroke="white" stroke-width="1" />
      <line x1="140" y1="20" x2="125" y2="40" stroke="white" stroke-width="1" />
      <line x1="140" y1="20" x2="155" y2="40" stroke="white" stroke-width="1" />
      <line x1="170" y1="20" x2="155" y2="40" stroke="white" stroke-width="1" />
      
      <line x1="35" y1="40" x2="20" y2="60" stroke="white" stroke-width="1" />
      <line x1="35" y1="40" x2="50" y2="60" stroke="white" stroke-width="1" />
      <line x1="65" y1="40" x2="50" y2="60" stroke="white" stroke-width="1" />
      <line x1="65" y1="40" x2="80" y2="60" stroke="white" stroke-width="1" />
      <line x1="95" y1="40" x2="80" y2="60" stroke="white" stroke-width="1" />
      <line x1="95" y1="40" x2="110" y2="60" stroke="white" stroke-width="1" />
      <line x1="125" y1="40" x2="110" y2="60" stroke="white" stroke-width="1" />
      <line x1="125" y1="40" x2="140" y2="60" stroke="white" stroke-width="1" />
      <line x1="155" y1="40" x2="140" y2="60" stroke="white" stroke-width="1" />
      <line x1="155" y1="40" x2="170" y2="60" stroke="white" stroke-width="1" />
    </g>
  </g>

  <!-- Central Graphic Element -->
  <g transform="translate(100, 95)" filter="url(#shadow)">
    <!-- Pineapple shape -->
    <path d="M0,-40 C15,-40 30,-30 30,-15 C30,0 25,15 20,30 C15,45 10,50 0,50 C-10,50 -15,45 -20,30 C-25,15 -30,0 -30,-15 C-30,-30 -15,-40 0,-40 Z" fill="#e67e22" stroke="#d35400" stroke-width="2" />
    
    <!-- Pineapple pattern -->
    <g fill="#f39c12" stroke="#d35400" stroke-width="1">
      <circle cx="-15" cy="-20" r="5" />
      <circle cx="0" cy="-25" r="5" />
      <circle cx="15" cy="-20" r="5" />
      <circle cx="-20" cy="-5" r="5" />
      <circle cx="-10" cy="-5" r="5" />
      <circle cx="0" cy="-5" r="5" />
      <circle cx="10" cy="-5" r="5" />
      <circle cx="20" cy="-5" r="5" />
      <circle cx="-15" cy="10" r="5" />
      <circle cx="-5" cy="10" r="5" />
      <circle cx="5" cy="10" r="5" />
      <circle cx="15" cy="10" r="5" />
      <circle cx="-10" cy="25" r="5" />
      <circle cx="0" cy="25" r="5" />
      <circle cx="10" cy="25" r="5" />
    </g>
    
    <!-- Pineapple crown/leaves -->
    <path d="M0,-40 L-5,-50 L-15,-65 M0,-40 L0,-55 L0,-70 M0,-40 L5,-50 L15,-65" fill="none" stroke="#27ae60" stroke-width="3" stroke-linecap="round" />
  </g>

  <!-- Title -->
  <g filter="url(#shadow)">
    <text x="100" y="160" font-family="Arial, sans-serif" font-size="30" font-weight="bold" fill="white" text-anchor="middle">PineCount</text>
    <text x="100" y="180" font-family="Arial, sans-serif" font-size="15" font-weight="bold" fill="white" text-anchor="middle">AI</text>
  </g>
</svg>
